# xmcd
#
# Track frame offsets:
#	150
#	10299
#	20851
#	32790
#	43030
#	54557
#	68871
#	80201
#	89893
#	102272
#	116164
#	128567
#	139698
#	151207
#	163757
#
# Disc length: 2385 seconds
#
# Revision: 1
# Processed by: cddbd v1.5.2PL0 Copyright (c) Steve Scherf et al.
# Submitted via: audiograbber 1.83.01
#
DISCID=d4094f0f
DTITLE=Zillertaler Mander - Schneidig g'jodelt, fetzig g'spielt
DYEAR=2008
DGENRE=Volkstümlich
TTITLE0=BOARISCH WEACHT HEIT TONZT
TTITLE1=BERGVAGABUNDEN
TTITLE2=KOMM DOCH EINFACH MAL MIT INS ZILLERTAL
TTITLE3=HANSAL SEPPAL LOISAL
TTITLE4=I MÖCHTE DIR NUR DANKSCHOEN SAGN
TTITLE5=DA BLEIBT KEINER MEHR SITZEN
TTITLE6=STIMMUNGSBOARISCHER
TTITLE7=RUMPEL DIE PUMPEL
TTITLE8=MEI DIANDL ISCH VOM ALPENLAND
TTITLE9=EIN STERN AM HIMMEL
TTITLE10=NUR FÜRS ZILLERTAL
TTITLE11=KUGELAG GSUNGEN KUGELAT GSPIELT
TTITLE12=A ZILLERTALER BOARISCHER
TTITLE13=ICH BLEIB EIN MUSIKANT
TTITLE14=WIE EIN ADLER IM BERGWIND
EXTD=
EXTT0=
EXTT1=
EXTT2=
EXTT3=
EXTT4=
EXTT5=
EXTT6=
EXTT7=
EXTT8=
EXTT9=
EXTT10=
EXTT11=
EXTT12=
EXTT13=
EXTT14=
PLAYORDER=
